<svg id="Layer_1" data-name="Layer 1" xmlns="http://www.w3.org/2000/svg" width="307" height="307" viewBox="0 0 307 307"><defs><style>.cls-1{fill:none;stroke-width:7px;}.cls-1,.cls-4{stroke:#000;stroke-linecap:round;stroke-miterlimit:10;}.cls-2{fill:#ed1c24;}.cls-3{fill:#009245;}</style></defs><title>ReactionRoulette</title><circle class="cls-1" cx="153.5" cy="153.5" r="150"/><path class="cls-2" d="M60,126.6a32.8,32.8,0,0,1,8.88,1.2A33.49,33.49,0,0,1,92.2,151.12,32.8,32.8,0,0,1,93.4,160a33.47,33.47,0,0,1-14.89,27.83,33.64,33.64,0,0,1-5.73,3.06,32.63,32.63,0,0,1-6.22,1.88,33.89,33.89,0,0,1-6.56.63,32.8,32.8,0,0,1-8.88-1.2,33.92,33.92,0,0,1-8-3.36,33,33,0,0,1-6.75-5.2,33.32,33.32,0,0,1-8.6-14.75,33.63,33.63,0,0,1,0-17.77A33.49,33.49,0,0,1,51.12,127.8,32.8,32.8,0,0,1,60,126.6Zm0,63.49A29.83,29.83,0,0,0,75.19,186,30.52,30.52,0,0,0,86,175.19,29.83,29.83,0,0,0,90.09,160,29.48,29.48,0,0,0,89,152a30,30,0,0,0-3-7.17,30.88,30.88,0,0,0-4.71-6.1A29.83,29.83,0,0,0,68,131a30,30,0,0,0-23.19,3,30.06,30.06,0,0,0-6.08,4.73,30.86,30.86,0,0,0-4.71,6.1A29.94,29.94,0,0,0,31,152a30.3,30.3,0,0,0,0,16,29.85,29.85,0,0,0,3,7.19A30.52,30.52,0,0,0,44.81,186,29.83,29.83,0,0,0,60,190.09Zm0.63-32.48a22.07,22.07,0,0,1,6.45.91,24.52,24.52,0,0,1,5.45,2.37,20.47,20.47,0,0,1,4.22,3.29,17.71,17.71,0,0,1,2.79,3.66,11.61,11.61,0,0,1,1.51,5.52,7.65,7.65,0,0,1-.42,2.57,7.06,7.06,0,0,1-1.2,2.11,4,4,0,0,1-1.72,1.23,12,12,0,0,1-3.34.46,15.8,15.8,0,0,1-2.83-.25q-1.35-.25-2.83-0.56-2.11-.49-3.87-0.86a17.93,17.93,0,0,0-3.69-.37H59.09a21.89,21.89,0,0,0-3.69.37q-1.76.33-3.45,0.76t-3.15.63a19.56,19.56,0,0,1-3,.25,15.28,15.28,0,0,1-1.65-.09,8,8,0,0,1-1.58-.33A4.06,4.06,0,0,1,40.75,178a6.34,6.34,0,0,1-1.18-2.11,7.65,7.65,0,0,1-.42-2.57,9.9,9.9,0,0,1,.4-2.74,13.67,13.67,0,0,1,1.18-2.81,16.32,16.32,0,0,1,2.76-3.64,21,21,0,0,1,4.2-3.27,24,24,0,0,1,5.45-2.37,22.24,22.24,0,0,1,6.47-.91h1ZM45.38,176.24q0.35,0,.74,0a6.75,6.75,0,0,0,.74-0.11q-0.11-.88-0.18-1.85t-0.07-2.2v-0.53c0-.23-0.08-0.4-0.11-0.49a0.58,0.58,0,0,1,0-.14l-0.14.07a26.73,26.73,0,0,0-4.5,2.11l-0.32.14a2.88,2.88,0,0,0,.25,1.23,5.46,5.46,0,0,0,.53.91,1.24,1.24,0,0,0,.63.49A7.31,7.31,0,0,0,45.38,176.24ZM53,146.92l-1.21-.65-2-1.09-2.39-1.3q-1.27-.69-2.37-1.32l-2-1.12q-0.84-.49-1.16-0.7a0.34,0.34,0,0,1-.11-0.25A1.05,1.05,0,0,1,42,140a2.53,2.53,0,0,1,.46-0.56,2.81,2.81,0,0,1,.62-0.44,1.33,1.33,0,0,1,.62-0.18h0.11a5.84,5.84,0,0,1,1.13.33q0.81,0.3,1.81.76t2.07,1q1.07,0.55,1.88,1a16.56,16.56,0,0,1,2.67,1.93,6.55,6.55,0,0,1,1.27,1.44,1.15,1.15,0,0,1,.07.28,1.28,1.28,0,0,1-.49.91,1.44,1.44,0,0,1-.95.46A0.6,0.6,0,0,1,53,146.92Zm-6.26,19.79q0.11-.7.18-1.32l0.14-1.21a15.1,15.1,0,0,0-2.58,2.23,12,12,0,0,0-1.78,2.48,0.43,0.43,0,0,0-.11.18,0.89,0.89,0,0,1-.11.21q0.81-.39,1.69-0.76t1.86-.72a0.7,0.7,0,0,0,.39-0.26,1.75,1.75,0,0,0,.21-0.37A1,1,0,0,0,46.78,166.71Zm-3.73-15.93a6.4,6.4,0,0,1,.33-2.07A5.76,5.76,0,0,1,44.3,147a4.62,4.62,0,0,1,1.35-1.18,3.29,3.29,0,0,1,1.65-.44,3.39,3.39,0,0,1,1.67.44A4.75,4.75,0,0,1,50.37,147a5.55,5.55,0,0,1,.93,1.72,6.41,6.41,0,0,1,.33,2.07,6.13,6.13,0,0,1-.6,2.78,5.64,5.64,0,0,0-1.55-.86,6,6,0,0,0-2.18-.37,5.92,5.92,0,0,0-2.13.37,4.56,4.56,0,0,0-1.49.86,7,7,0,0,1-.46-1.3A6,6,0,0,1,43.05,150.79Zm15.54,23.38v-4.75a1.83,1.83,0,0,0-.09-0.4,0.71,0.71,0,0,0-.69-0.37q-1.27.07-3.23,0.28a33.45,33.45,0,0,0-4.39.81,0.6,0.6,0,0,0-.37.28l-0.19.35q0,1.51.05,2.78t0.19,2.39l1.16-.21q1.76-.42,3.6-0.76A27.42,27.42,0,0,1,58.59,174.17Zm0.11-9.67v-4.25a21.48,21.48,0,0,0-4.39.65,24.25,24.25,0,0,0-3.9,1.35q-0.11.7-.23,1.72t-0.3,2.36a0.34,0.34,0,0,0,.07.25,0.19,0.19,0,0,0,.11.07h0l7.35-1A1.27,1.27,0,0,0,58.7,164.5Zm3-4.25v4.08a2.15,2.15,0,0,0,0,.28,1.6,1.6,0,0,0,.16.46,1.21,1.21,0,0,0,.35.42,1,1,0,0,0,.62.18q1.3,0,3.22.19a37.88,37.88,0,0,1,4.31.72h0a0.2,0.2,0,0,0,.11-0.07v-0.18q-0.11-1.37-.26-2.43T70,162.32a20.54,20.54,0,0,0-3.9-1.42A21.48,21.48,0,0,0,61.69,160.25Zm8.82,15.36q0.14-.88.21-1.85t0.07-2.09V170.2L70.69,170a0.43,0.43,0,0,0-.25-0.23,43.16,43.16,0,0,0-4.5-.84,27.54,27.54,0,0,0-3.3-.25,0.84,0.84,0,0,0-.95.95v4.57a28.71,28.71,0,0,1,4,.4q1.9,0.33,3.59.76Zm-4.64-28.12a0.62,0.62,0,0,1-.28.07,1.4,1.4,0,0,1-1-.51,1.47,1.47,0,0,1-.49-1,1.13,1.13,0,0,1,.07-0.28,6.57,6.57,0,0,1,1.34-1.48,18.22,18.22,0,0,1,2.74-2q0.84-.53,1.93-1.09t2.11-1q1-.47,1.86-0.79a6,6,0,0,1,1.16-.35l0.21,0a1.21,1.21,0,0,1,.63.19,3.11,3.11,0,0,1,.58.46,2.84,2.84,0,0,1,.44.56,1.06,1.06,0,0,1,.18.51,0.34,0.34,0,0,1-.11.25q-0.32.25-1.18,0.77t-2,1.2l-2.44,1.39-2.44,1.37q-1.16.65-2.06,1.13Zm2.78,3.38a6.67,6.67,0,0,1,.33-2.13A5.71,5.71,0,0,1,69.9,147a4.62,4.62,0,0,1,1.35-1.18,3.29,3.29,0,0,1,1.65-.44,3.36,3.36,0,0,1,1.69.44A4.62,4.62,0,0,1,75.94,147a5.43,5.43,0,0,1,.9,1.74,7,7,0,0,1,.32,2.13,6.82,6.82,0,0,1-.6,2.88,4,4,0,0,0-1.51-.88,6.35,6.35,0,0,0-2.14-.35,5.9,5.9,0,0,0-2.09.35,4.9,4.9,0,0,0-1.53.88,7.94,7.94,0,0,1-.46-1.35A6.41,6.41,0,0,1,68.65,150.86Zm5,15.79a1.09,1.09,0,0,0,.18.46q0.11,0.18.25,0.37a0.71,0.71,0,0,0,.42.26l0.32,0.14,1.48,0.54q0.88,0.33,1.48.62a13.23,13.23,0,0,0-1.81-2.48,19.92,19.92,0,0,0-2.51-2.3q0.07,0.53.11,1.11T73.61,166.64Zm5,7.8q0.11-.35.18-0.7a3.75,3.75,0,0,0,.07-0.74q-1.13-.6-2.3-1.12t-2.58-1.05a1,1,0,0,1,0,.21,1.87,1.87,0,0,0,0,.42v0.67H73.78q0,0.88-.07,1.9t-0.18,2.07q0.35,0.07.69,0.11a6.9,6.9,0,0,0,.72,0,7.2,7.2,0,0,0,1.28-.11,11.31,11.31,0,0,0,1.18-.28,1.41,1.41,0,0,0,.67-0.49A2.86,2.86,0,0,0,78.56,174.45Z" transform="translate(-6.5 -6.5)"/><path d="M88.25,56a32.8,32.8,0,0,1,8.88,1.2,33.49,33.49,0,0,1,23.33,23.33,32.8,32.8,0,0,1,1.2,8.88,33.47,33.47,0,0,1-14.89,27.83,33.64,33.64,0,0,1-5.73,3.06,32.63,32.63,0,0,1-6.22,1.88,33.89,33.89,0,0,1-6.56.63,32.8,32.8,0,0,1-8.88-1.2,33.92,33.92,0,0,1-8-3.36,33,33,0,0,1-6.75-5.2A33.32,33.32,0,0,1,56,98.33a33.63,33.63,0,0,1,0-17.77A33.49,33.49,0,0,1,79.38,57.23,32.8,32.8,0,0,1,88.25,56Zm0,63.49a29.83,29.83,0,0,0,15.19-4.11,30.52,30.52,0,0,0,10.79-10.79,29.83,29.83,0,0,0,4.11-15.19,29.48,29.48,0,0,0-1.07-8,30,30,0,0,0-3-7.17,30.88,30.88,0,0,0-4.71-6.1,29.83,29.83,0,0,0-13.27-7.77,30,30,0,0,0-23.19,3A30.06,30.06,0,0,0,67,68.18a30.86,30.86,0,0,0-4.71,6.1,29.94,29.94,0,0,0-3,7.17,30.3,30.3,0,0,0,0,16,29.85,29.85,0,0,0,3,7.19,30.52,30.52,0,0,0,10.79,10.79A29.83,29.83,0,0,0,88.25,119.53ZM80.45,81.7a5.46,5.46,0,0,1-.77,1.07,5.77,5.77,0,0,1-1.18,1,6.28,6.28,0,0,1-1.53.7,6.1,6.1,0,0,1-1.83.26H74.79a6.27,6.27,0,0,1-1.85-.26,6.21,6.21,0,0,1-2.74-1.69,4.19,4.19,0,0,1-.76-1.07A3.2,3.2,0,0,1,69,80.12a1.83,1.83,0,0,1,.23-0.95,1.49,1.49,0,0,1,.54-0.56,2.1,2.1,0,0,1,.67-0.11,3.37,3.37,0,0,1,1,.16l1,0.35q0.53,0.19,1.07.35a4.21,4.21,0,0,0,1.18.16h0.46a4.26,4.26,0,0,0,1.16-.16q0.56-.16,1.07-0.35l1-.35a3.2,3.2,0,0,1,1-.16,2.1,2.1,0,0,1,.67.11,1.39,1.39,0,0,1,.58.58,2,2,0,0,1,.23,1,3.36,3.36,0,0,1-.09.74A2.46,2.46,0,0,1,80.45,81.7Zm18,16.77a0.5,0.5,0,0,1,.26.32,4.72,4.72,0,0,1,.23.69,6.26,6.26,0,0,1,.16.86,7.4,7.4,0,0,1,.05.84A5.71,5.71,0,0,1,99,102a0.82,0.82,0,0,1-.26.47,1.05,1.05,0,0,1-.49.21,4.48,4.48,0,0,1-.76.05H88.85l-3.9,0-3.2,0-2.18,0a4.4,4.4,0,0,0-.84.05H78.66a1,1,0,0,1-.74-0.42,1.87,1.87,0,0,1-.42-1,0.44,0.44,0,0,1,0-.19V101a4.69,4.69,0,0,1,.07-0.77,7.18,7.18,0,0,1,.18-0.79A2.64,2.64,0,0,1,78,98.8a0.71,0.71,0,0,1,.37-0.33q0.18,0,1.14-.12L82,98.15Q83.47,98,85.39,98t4-.07q2.32,0,4.64.12T98.45,98.47Zm8.68-19.62a1,1,0,0,1,.58.47,1.82,1.82,0,0,1,.23,1,3.23,3.23,0,0,1-.09.7,2.46,2.46,0,0,1-.33.77,4.24,4.24,0,0,1-.81,1,6,6,0,0,1-1.25.91,7.91,7.91,0,0,1-1.6.67,6.58,6.58,0,0,1-1.9.26h-0.35a6.57,6.57,0,0,1-1.9-.26,7.88,7.88,0,0,1-1.6-.67,6,6,0,0,1-1.25-.91,4.23,4.23,0,0,1-.81-1A2.44,2.44,0,0,1,95.72,81a3.2,3.2,0,0,1-.09-0.7,1.81,1.81,0,0,1,.23-1,1,1,0,0,1,.58-0.47,2.55,2.55,0,0,1,.74-0.11,3.78,3.78,0,0,1,1,.14l1,0.3,1.09,0.3a4.91,4.91,0,0,0,1.2.14h0.56a4.77,4.77,0,0,0,1.16-.14l1.09-.3,1-.3a3.71,3.71,0,0,1,1-.14A2.93,2.93,0,0,1,107.13,78.85Z" transform="translate(-6.5 -6.5)"/><path d="M229.91,197a32.8,32.8,0,0,1,8.88,1.2,33.49,33.49,0,0,1,23.33,23.33,32.8,32.8,0,0,1,1.2,8.88,33.47,33.47,0,0,1-14.89,27.83,33.64,33.64,0,0,1-5.73,3.06,32.63,32.63,0,0,1-6.22,1.88,33.89,33.89,0,0,1-6.56.63,32.8,32.8,0,0,1-8.88-1.2,33.92,33.92,0,0,1-8-3.36,33,33,0,0,1-6.75-5.2,33.32,33.32,0,0,1-8.6-14.75,33.63,33.63,0,0,1,0-17.77A33.49,33.49,0,0,1,221,198.2,32.8,32.8,0,0,1,229.91,197Zm0,63.49a29.83,29.83,0,0,0,15.19-4.11,30.52,30.52,0,0,0,10.79-10.79A29.83,29.83,0,0,0,260,230.41a29.48,29.48,0,0,0-1.07-8,30,30,0,0,0-3-7.17,30.88,30.88,0,0,0-4.71-6.1,29.83,29.83,0,0,0-13.27-7.77,30,30,0,0,0-23.19,3,30.06,30.06,0,0,0-6.08,4.73,30.86,30.86,0,0,0-4.71,6.1,29.94,29.94,0,0,0-3,7.17,30.3,30.3,0,0,0,0,16,29.85,29.85,0,0,0,3,7.19,30.52,30.52,0,0,0,10.79,10.79A29.83,29.83,0,0,0,229.91,260.5ZM221.54,218a1.47,1.47,0,0,1,.54.46,0.78,0.78,0,0,1-.44,1.23l-1.12.39a8.11,8.11,0,0,1-1.3.32,3.57,3.57,0,0,1,1,2.64,4,4,0,0,1-.18,1.18,8.46,8.46,0,0,1-.42,1.11,8.32,8.32,0,0,1-.53,1,6.29,6.29,0,0,1-.49.69,4.43,4.43,0,0,0-1-.18q-0.56,0-1.16,0-0.81,0-1.49.05l-1,.09a4.58,4.58,0,0,1-1-1.46,4.72,4.72,0,0,1-.37-1.88,3.9,3.9,0,0,1,.16-1.12,6.38,6.38,0,0,1,.4-1,3.21,3.21,0,0,1-.86.23,7.23,7.23,0,0,1-.86.05,1.46,1.46,0,0,1-.77-0.19,0.63,0.63,0,0,1-.32-0.58,1.11,1.11,0,0,1,.18-0.6,4.77,4.77,0,0,1,1.69-1.51,10.81,10.81,0,0,1,3.34-1.27,13,13,0,0,1,2.53-.28,8.85,8.85,0,0,1,2,.21A4.53,4.53,0,0,1,221.54,218Zm9,19.34a18.65,18.65,0,0,1,5,.7,17,17,0,0,1,4.52,2,11.26,11.26,0,0,1,3.23,3,6.52,6.52,0,0,1,1.23,3.85,5.42,5.42,0,0,1-.3,1.93,3,3,0,0,1-.81,1.21,3.09,3.09,0,0,1-1.18.63,5,5,0,0,1-1.41.19,13.24,13.24,0,0,1-2.34-.21l-2.43-.46q-1.25-.25-2.58-0.46a17.8,17.8,0,0,0-2.78-.21h-1.3a17.52,17.52,0,0,0-2.88.23q-1.37.23-2.64,0.49l-2.5.49a13.23,13.23,0,0,1-2.43.23,4.52,4.52,0,0,1-1.37-.21,3.34,3.34,0,0,1-1.2-.67,3.2,3.2,0,0,1-.84-1.21,4.78,4.78,0,0,1-.32-1.85,6.73,6.73,0,0,1,1.2-3.87,11.11,11.11,0,0,1,3.2-3.06,16.49,16.49,0,0,1,4.61-2,20.2,20.2,0,0,1,5.41-.72h0.84Zm-0.7,2.57a14.78,14.78,0,0,0-4.29.62,14.3,14.3,0,0,0-3.6,1.62,9.21,9.21,0,0,0-2.5,2.27,4.34,4.34,0,0,0-.93,2.6,1.47,1.47,0,0,0,.35,1,1,1,0,0,0,.81.4,11.71,11.71,0,0,0,2-.19l2.32-.44q1.23-.25,2.64-0.44a21.75,21.75,0,0,1,3-.19h1a21.26,21.26,0,0,1,3,.19q1.37,0.19,2.57.4l2.21,0.4a10.39,10.39,0,0,0,1.93.19,1.12,1.12,0,0,0,.83-0.33,1.47,1.47,0,0,0,.33-1.07,4.86,4.86,0,0,0-.86-2.76,7.85,7.85,0,0,0-2.36-2.23,12.72,12.72,0,0,0-3.5-1.49,16.15,16.15,0,0,0-4.25-.54h-0.67Zm12.09-22.64a13,13,0,0,1,2.53.28,10.16,10.16,0,0,1,3.36,1.27,5.28,5.28,0,0,1,1.67,1.51,1.11,1.11,0,0,1,.18.6,0.63,0.63,0,0,1-.33.58,1.55,1.55,0,0,1-.79.19,6.52,6.52,0,0,1-.81-0.05,2.76,2.76,0,0,1-.81-0.23q0.18,0.49.32,1a4.37,4.37,0,0,1,.14,1.13,4.94,4.94,0,0,1-.35,1.88,5.08,5.08,0,0,1-.88,1.46l-1-.09q-0.69-.05-1.49-0.05-0.6,0-1.18,0a5,5,0,0,0-1.07.18,4.08,4.08,0,0,1-.53-0.69,8.17,8.17,0,0,1-.53-1,6.92,6.92,0,0,1-.4-1.11,4.45,4.45,0,0,1-.16-1.18,4,4,0,0,1,.26-1.48,3.67,3.67,0,0,1,.72-1.16,7.78,7.78,0,0,1-1.25-.32l-1.14-.39a1.43,1.43,0,0,1-.4-0.33,0.67,0.67,0,0,1-.16-0.44,0.86,0.86,0,0,1,.16-0.46,1.46,1.46,0,0,1,.54-0.46,4.52,4.52,0,0,1,1.37-.53A8.62,8.62,0,0,1,241.93,217.22Z" transform="translate(-6.5 -6.5)"/><path class="cls-2" d="M260,126.6a32.8,32.8,0,0,1,8.88,1.2,33.49,33.49,0,0,1,23.33,23.33,32.8,32.8,0,0,1,1.2,8.88,33.47,33.47,0,0,1-14.89,27.83,33.64,33.64,0,0,1-5.73,3.06,32.63,32.63,0,0,1-6.22,1.88,33.89,33.89,0,0,1-6.56.63,32.8,32.8,0,0,1-8.88-1.2,33.92,33.92,0,0,1-8-3.36,33,33,0,0,1-6.75-5.2,33.32,33.32,0,0,1-8.6-14.75,33.63,33.63,0,0,1,0-17.77,33.49,33.49,0,0,1,23.33-23.33A32.8,32.8,0,0,1,260,126.6Zm0,63.49A29.83,29.83,0,0,0,275.19,186,30.52,30.52,0,0,0,286,175.19,29.83,29.83,0,0,0,290.09,160a29.48,29.48,0,0,0-1.07-8,30,30,0,0,0-3-7.17,30.88,30.88,0,0,0-4.71-6.1A29.83,29.83,0,0,0,268,131a30,30,0,0,0-23.19,3,30.06,30.06,0,0,0-6.08,4.73,30.86,30.86,0,0,0-4.71,6.1,29.94,29.94,0,0,0-3,7.17,30.3,30.3,0,0,0,0,16,29.85,29.85,0,0,0,3,7.19A30.52,30.52,0,0,0,244.81,186,29.83,29.83,0,0,0,260,190.09Zm-5.7-47.36a8.22,8.22,0,0,1-1,.76q-0.62.4-1.28,0.76t-1.27.63a7.35,7.35,0,0,1-.95.39,14.09,14.09,0,0,1-1.41.4q-0.81.19-1.72,0.35t-1.9.26q-1,.11-1.93.14h-0.07a1.88,1.88,0,0,1-1.49-.58,1.86,1.86,0,0,1-.51-1.25,1.42,1.42,0,0,1,.32-0.9,1.37,1.37,0,0,1,1-.47l1.71-.12q0.83-.05,2.13-0.23,0.77-.11,1.46-0.25a11.67,11.67,0,0,0,1.49-.42l0.72-.28q0.47-.18,1.05-0.44a9.83,9.83,0,0,0,1.14-.62,4.55,4.55,0,0,0,.95-0.77,2.56,2.56,0,0,1,.81-0.62,2,2,0,0,1,.81-0.19,1.41,1.41,0,0,1,1,.35,1.18,1.18,0,0,1,.39.91,2.34,2.34,0,0,1-.53,1.27A6.61,6.61,0,0,1,254.3,142.74Zm-8.79,4.54a2.32,2.32,0,0,1,1.16.3,4.25,4.25,0,0,1,.91.69,4.6,4.6,0,0,1,.65.81,5.37,5.37,0,0,1,.37.67,6.77,6.77,0,0,1,.46,1.37,9.32,9.32,0,0,1,.18,2q0,1.27-.11,2.37a3.06,3.06,0,0,1-.74,1.81,2.22,2.22,0,0,1-.62-0.21q-0.37-.18-0.77-0.33l-0.81-.3a2.17,2.17,0,0,0-.69-0.14,2.4,2.4,0,0,0-.74.14l-0.84.3q-0.42.16-.79,0.33a2.22,2.22,0,0,1-.62.21,3.06,3.06,0,0,1-.74-1.81q-0.11-1.11-.11-2.37a5.5,5.5,0,0,1,.07-0.79q0.07-.47.16-0.95t0.19-.91a6.32,6.32,0,0,1,.21-0.72,5.09,5.09,0,0,1,.26-0.67,3,3,0,0,1,.56-0.81,3.54,3.54,0,0,1,.95-0.69A3.09,3.09,0,0,1,245.52,147.27Zm15.15,22.68a22.39,22.39,0,0,1,3.27.23,16.89,16.89,0,0,1,2.78.63,11.74,11.74,0,0,1,2.13.91,4.25,4.25,0,0,1,1.32,1.07,3.16,3.16,0,0,1,.84,1.86,1.53,1.53,0,0,1-.42,1.11,2.27,2.27,0,0,1-1,.62,7.06,7.06,0,0,1-1,.14q-0.51,0-1,0a20.9,20.9,0,0,1-3.18-.25,23.4,23.4,0,0,0-3.53-.25h-1.34a21,21,0,0,0-3.59.28,18.6,18.6,0,0,1-3.2.28,9.53,9.53,0,0,1-2-.21,2.07,2.07,0,0,1-1-.6,1.6,1.6,0,0,1-.44-1.16,2.36,2.36,0,0,1,.18-0.84,3.34,3.34,0,0,1,.6-0.95,7.7,7.7,0,0,1,3.53-2.07,19,19,0,0,1,6-.84h1.09Zm3.83-29.39v-0.11a1.07,1.07,0,0,1,.37-0.83,1.34,1.34,0,0,1,.93-0.33,1.83,1.83,0,0,1,.79.19,2.65,2.65,0,0,1,.79.62,5.5,5.5,0,0,0,1,.77,9.79,9.79,0,0,0,1.14.62q0.58,0.26,1.05.44l0.72,0.28a15.64,15.64,0,0,0,1.55.42q0.67,0.14,1.48.25,1.3,0.18,2.07.23l1.65,0.12a1.4,1.4,0,0,1,1.37,1.41,1.79,1.79,0,0,1-.49,1.2,1.9,1.9,0,0,1-1.51.56h-0.14q-0.91,0-1.88-.14T273.5,146q-0.91-.16-1.72-0.33a10,10,0,0,1-1.37-.39,6.31,6.31,0,0,1-1-.39q-0.6-.28-1.27-0.63t-1.3-.76a7.64,7.64,0,0,1-1-.76,6.58,6.58,0,0,1-.88-0.91A2,2,0,0,1,264.5,140.56ZM278,149.73a4.78,4.78,0,0,1,.19.72q0.09,0.44.18,0.91t0.14,0.95a7.39,7.39,0,0,1,.05.79v0.35a21.23,21.23,0,0,1-.11,2.18,2.74,2.74,0,0,1-.7,1.65,2.22,2.22,0,0,1-.62-0.21q-0.37-.18-0.77-0.33l-0.81-.3a1.92,1.92,0,0,0-1.44,0l-0.81.3q-0.4.16-.77,0.33a2.35,2.35,0,0,1-.58.21,2.65,2.65,0,0,1-.81-1.72q-0.11-1.05-.11-2.29v-0.18a9.29,9.29,0,0,1,.18-2,6.71,6.71,0,0,1,.46-1.37,5.37,5.37,0,0,1,.37-0.67,4.57,4.57,0,0,1,.65-0.81,4.24,4.24,0,0,1,.91-0.69,2.46,2.46,0,0,1,1.23-.3,3,3,0,0,1,1.41.3,3.34,3.34,0,0,1,.91.69,3.19,3.19,0,0,1,.54.81Z" transform="translate(-6.5 -6.5)"/><path d="M231.67,55.88a33.36,33.36,0,0,1,17,4.59,34.84,34.84,0,0,1,6.82,5.26,32.82,32.82,0,0,1,5.27,6.79,34.28,34.28,0,0,1,3.39,8,32.53,32.53,0,0,1,1.21,8.89,32.91,32.91,0,0,1-2.55,12.88,33.82,33.82,0,0,1-7.37,10.88,33.76,33.76,0,0,1-32.7,8.61,34.07,34.07,0,0,1-8-3.37,33.3,33.3,0,0,1-6.82-5.26,33.76,33.76,0,0,1-8.68-14.82,33.35,33.35,0,0,1,0-17.82,33.84,33.84,0,0,1,23.54-23.45A33.13,33.13,0,0,1,231.67,55.88Zm0,63.77a30.25,30.25,0,0,0,26.19-15,30.63,30.63,0,0,0,3.06-7.22A29.56,29.56,0,0,0,262,89.42a29.24,29.24,0,0,0-1.09-8,30.73,30.73,0,0,0-3.06-7.21A30.3,30.3,0,0,0,247,63.37a30.92,30.92,0,0,0-7.26-3.06,30.41,30.41,0,0,0-16.14,0,30.91,30.91,0,0,0-7.26,3.06,30.3,30.3,0,0,0-10.86,10.85,30.69,30.69,0,0,0-3.06,7.21,29.22,29.22,0,0,0-1.09,8,29.54,29.54,0,0,0,1.09,8.05,30.59,30.59,0,0,0,3.06,7.22A30.26,30.26,0,0,0,231.67,119.65Zm0-25.24a18.94,18.94,0,0,0,2.9-.26q1.67-.26,3.46-0.65t3.6-.86l3.34-.86,2.65-.65a8.22,8.22,0,0,1,1.55-.26,7.65,7.65,0,0,1,2.36.35,5.11,5.11,0,0,1,1.9,1.09,5,5,0,0,1,1.27,1.92,7.73,7.73,0,0,1,.46,2.79,10.71,10.71,0,0,1-1,4.48,16,16,0,0,1-2.69,4.06,22.7,22.7,0,0,1-4,3.48,28,28,0,0,1-4.9,2.71,30,30,0,0,1-5.41,1.74,25.54,25.54,0,0,1-5.5.62,28.53,28.53,0,0,1-6-.63,28.85,28.85,0,0,1-5.54-1.78,26.18,26.18,0,0,1-4.8-2.72,20.39,20.39,0,0,1-3.78-3.48,15.85,15.85,0,0,1-2.48-4,11.29,11.29,0,0,1-.9-4.39,7.94,7.94,0,0,1,.46-2.87,4.82,4.82,0,0,1,1.27-1.9,5,5,0,0,1,2-1.05,8.93,8.93,0,0,1,2.51-.33,11.59,11.59,0,0,1,2.2.26q1.32,0.26,2.85.65t3.2,0.84q1.67,0.46,3.29.84T229,94.15A15.63,15.63,0,0,0,231.67,94.41Zm-20.32,5.91q1.41,0.28,2.85.67t3,0.88a2,2,0,0,0,.7-0.54,1.6,1.6,0,0,0,.32-1.07l-0.49-6.54a15.5,15.5,0,0,0-2.39-.21,5,5,0,0,0-3.29,1,4,4,0,0,0-1.21,3.29,6.08,6.08,0,0,0,.12,1.16A8.33,8.33,0,0,0,211.35,100.32Zm2,3.41a14.76,14.76,0,0,0,3,3.2,20.62,20.62,0,0,0,4.2,2.64,21.17,21.17,0,0,1-.53-2.06q-0.21-1-.49-2.06-1.58-.46-3.13-0.95A26.19,26.19,0,0,0,213.36,103.73Zm4.22-25.66a13.43,13.43,0,0,1,.23-2.53,8.79,8.79,0,0,1,.65-2.09,4.55,4.55,0,0,1,1-1.41,1.7,1.7,0,0,1,1.18-.51,1.76,1.76,0,0,1,1.2.51,4.4,4.4,0,0,1,1,1.41,9.35,9.35,0,0,1,.67,2.09,12.57,12.57,0,0,1,.25,2.53,12.75,12.75,0,0,1-.25,2.57,9.34,9.34,0,0,1-.67,2.09,4.4,4.4,0,0,1-1,1.41,1.76,1.76,0,0,1-1.2.51,1.7,1.7,0,0,1-1.18-.51,4.55,4.55,0,0,1-1-1.41,8.79,8.79,0,0,1-.65-2.09A13.62,13.62,0,0,1,217.57,78.06Zm3.13,24.4a2,2,0,0,0,.4.42,3.29,3.29,0,0,0,.47.28q2.43,0.49,3.76.74l2,0.39q0.69,0.14.9,0.16l0.35,0a4.34,4.34,0,0,0,1.16-.18,1.27,1.27,0,0,0,.88-0.88V96.59a19,19,0,0,1-2.88-.21,25.45,25.45,0,0,1-2.69-.56q-1.32-.35-2.58-0.76l-2.57-.79q0,0.53.16,1.76t0.25,2.57q0.12,1.34.25,2.44T220.7,102.46Zm10,9.42V108.3a1.22,1.22,0,0,0-.84-0.95,39.58,39.58,0,0,1-4.24-.42q-2-.32-3.92-0.77,0.25,1,.42,1.71t0.32,1.18q0.14,0.49.26,0.84l0.23,0.67a28,28,0,0,0,3.81,1A21.87,21.87,0,0,0,230.72,111.88ZM242,103.16a2.66,2.66,0,0,1,.35-0.3,1.38,1.38,0,0,0,.35-0.4l0.88-8.19-3.2,1q-1.44.44-2.74,0.74t-2.5.46a18.47,18.47,0,0,1-2.43.16v6.82a1.37,1.37,0,0,0,.95.88,4.62,4.62,0,0,0,1.16.18,33.62,33.62,0,0,0,3.85-.53Q240.46,103.59,242,103.16Zm-0.28,3q-1.9.46-3.88,0.79a31.1,31.1,0,0,1-4.17.4,1.28,1.28,0,0,0-.77,1.2v3.34a29.21,29.21,0,0,0,3.87-.39,25.27,25.27,0,0,0,3.76-.95Zm-1.93-28.09a13.43,13.43,0,0,1,.23-2.53,8.79,8.79,0,0,1,.65-2.09,4.55,4.55,0,0,1,1-1.41A1.62,1.62,0,0,1,244,72a4.56,4.56,0,0,1,1,1.41,8.82,8.82,0,0,1,.65,2.09,13.47,13.47,0,0,1,.23,2.53,13.66,13.66,0,0,1-.23,2.57,8.81,8.81,0,0,1-.65,2.09,4.55,4.55,0,0,1-1,1.41,1.62,1.62,0,0,1-2.36,0,4.55,4.55,0,0,1-1-1.41,8.79,8.79,0,0,1-.65-2.09A13.62,13.62,0,0,1,239.83,78.06Zm3.16,31.5a21.42,21.42,0,0,0,4.13-2.64,16.48,16.48,0,0,0,3-3.2,17.82,17.82,0,0,0-3.06.79q-1.55.55-3.13,0.93-0.21,1.05-.51,2.06A16.92,16.92,0,0,0,243,109.56Zm9.18-9.25a6.49,6.49,0,0,0,.39-1.34,7.1,7.1,0,0,0,.11-1.16,4,4,0,0,0-1.23-3.32,5,5,0,0,0-3.27-1,15.4,15.4,0,0,0-2.46.21l-0.46,6.36a1.87,1.87,0,0,0,.33,1.21,2,2,0,0,0,.76.58q1.55-.49,3-0.88T252.17,100.32Z" transform="translate(-6.5 -6.5)"/><path d="M88.09,195A32.8,32.8,0,0,1,97,196.2a33.49,33.49,0,0,1,23.33,23.33,32.8,32.8,0,0,1,1.2,8.88,33.47,33.47,0,0,1-14.89,27.83,33.64,33.64,0,0,1-5.73,3.06,32.59,32.59,0,0,1-6.22,1.88,33.89,33.89,0,0,1-6.56.63,32.78,32.78,0,0,1-8.88-1.2,33.92,33.92,0,0,1-8-3.36,33,33,0,0,1-6.75-5.2,33.32,33.32,0,0,1-8.6-14.75,33.63,33.63,0,0,1,0-17.77A33.49,33.49,0,0,1,79.22,196.2,32.8,32.8,0,0,1,88.09,195Zm0,63.49a29.83,29.83,0,0,0,15.19-4.11,30.52,30.52,0,0,0,10.79-10.79,29.83,29.83,0,0,0,4.11-15.19,29.48,29.48,0,0,0-1.07-8,30,30,0,0,0-3-7.17,30.88,30.88,0,0,0-4.71-6.1,29.83,29.83,0,0,0-13.27-7.77,30,30,0,0,0-23.19,3,30.06,30.06,0,0,0-6.08,4.73,30.86,30.86,0,0,0-4.71,6.1,29.94,29.94,0,0,0-3,7.17,30.3,30.3,0,0,0,0,16,29.85,29.85,0,0,0,3,7.19,30.52,30.52,0,0,0,10.79,10.79A29.83,29.83,0,0,0,88.09,258.5Zm-5.62-47.43a8.22,8.22,0,0,1-1,.76q-0.62.4-1.28,0.76t-1.27.63a7.35,7.35,0,0,1-.95.39,14.09,14.09,0,0,1-1.41.4q-0.81.19-1.72,0.35t-1.9.26q-1,.11-1.93.14H70.94a1.88,1.88,0,0,1-1.49-.58,1.86,1.86,0,0,1-.51-1.25,1.42,1.42,0,0,1,.32-0.9,1.37,1.37,0,0,1,1-.47l1.71-.12q0.83-.05,2.13-0.23,0.77-.11,1.46-0.25a11.67,11.67,0,0,0,1.49-.42l0.72-.28q0.47-.18,1.05-0.44a9.83,9.83,0,0,0,1.14-.62,4.55,4.55,0,0,0,.95-0.77,2.25,2.25,0,0,1,1.62-.81,1.41,1.41,0,0,1,1,.35,1.18,1.18,0,0,1,.39.91,2.34,2.34,0,0,1-.53,1.27A6.61,6.61,0,0,1,82.47,211.08Zm-8.79,4.54a2.32,2.32,0,0,1,1.16.3,4.25,4.25,0,0,1,.91.69,4.6,4.6,0,0,1,.65.81,5.37,5.37,0,0,1,.37.67,6.77,6.77,0,0,1,.46,1.37,9.32,9.32,0,0,1,.18,2q0,1.27-.11,2.37a3.06,3.06,0,0,1-.74,1.81,2.53,2.53,0,0,1-.62-0.19l-0.77-.33q-0.4-.18-0.81-0.32a2.17,2.17,0,0,0-.69-0.14,2.4,2.4,0,0,0-.74.14q-0.42.14-.84,0.32l-0.79.33a2.54,2.54,0,0,1-.62.19,3.06,3.06,0,0,1-.74-1.81q-0.11-1.11-.11-2.37a7.39,7.39,0,0,1,.05-0.79,8.91,8.91,0,0,1,.16-0.95q0.11-.47.21-0.91a6.32,6.32,0,0,1,.21-0.72,5.09,5.09,0,0,1,.26-0.67,3,3,0,0,1,.56-0.81,3.54,3.54,0,0,1,.95-0.69A3.09,3.09,0,0,1,73.68,215.61ZM88.8,235.23a18.65,18.65,0,0,1,5,.7,17,17,0,0,1,4.52,2,11.26,11.26,0,0,1,3.23,3,6.52,6.52,0,0,1,1.23,3.85,5.42,5.42,0,0,1-.3,1.93,3,3,0,0,1-.81,1.21,3.1,3.1,0,0,1-1.18.63,5,5,0,0,1-1.41.19,13.24,13.24,0,0,1-2.34-.21l-2.43-.46q-1.25-.25-2.58-0.46a17.8,17.8,0,0,0-2.78-.21h-1.3a17.52,17.52,0,0,0-2.88.23q-1.37.23-2.64,0.49l-2.5.49a13.27,13.27,0,0,1-2.43.23,4.52,4.52,0,0,1-1.37-.21,3.34,3.34,0,0,1-1.2-.67,3.21,3.21,0,0,1-.84-1.21,4.78,4.78,0,0,1-.32-1.85,6.73,6.73,0,0,1,1.2-3.87,11.11,11.11,0,0,1,3.2-3.06,16.47,16.47,0,0,1,4.61-2,20.18,20.18,0,0,1,5.41-.72H88.8Zm-0.7,2.57a14.77,14.77,0,0,0-4.29.62A14.3,14.3,0,0,0,80.2,240a9.21,9.21,0,0,0-2.5,2.27,4.34,4.34,0,0,0-.93,2.6,1.47,1.47,0,0,0,.35,1,1,1,0,0,0,.81.4,11.71,11.71,0,0,0,2-.19l2.32-.44q1.23-.25,2.64-0.44a21.67,21.67,0,0,1,3-.19h1a21.19,21.19,0,0,1,3,.19q1.37,0.19,2.57.4l2.21,0.4a10.39,10.39,0,0,0,1.93.19,1.12,1.12,0,0,0,.83-0.33,1.47,1.47,0,0,0,.33-1.07,4.86,4.86,0,0,0-.86-2.76,7.85,7.85,0,0,0-2.36-2.23,12.7,12.7,0,0,0-3.5-1.49,16.15,16.15,0,0,0-4.25-.54H88.09Zm4.57-28.9v-0.11A1.07,1.07,0,0,1,93,208a1.34,1.34,0,0,1,.93-0.33,2.22,2.22,0,0,1,1.58.81,5.25,5.25,0,0,0,1,.77,12.2,12.2,0,0,0,1.14.62q0.56,0.26,1,.44l0.72,0.28A15.64,15.64,0,0,0,101,211q0.67,0.14,1.48.25,1.3,0.18,2.07.23l1.65,0.12a1.4,1.4,0,0,1,1.37,1.41,1.79,1.79,0,0,1-.49,1.2,1.9,1.9,0,0,1-1.51.56h-0.14q-0.91,0-1.88-.14t-1.9-.25q-0.93-.14-1.72-0.33a11.94,11.94,0,0,1-1.35-.4,6.31,6.31,0,0,1-1-.39q-0.6-.28-1.27-0.63t-1.3-.76a7.64,7.64,0,0,1-1-.76,6.58,6.58,0,0,1-.88-0.91A2,2,0,0,1,92.67,208.9Zm13.46,9.18a6.32,6.32,0,0,1,.21.72q0.11,0.44.18,0.93t0.12,0.95a6.93,6.93,0,0,1,.05.77v0.35a21.23,21.23,0,0,1-.11,2.18,2.74,2.74,0,0,1-.7,1.65,2.53,2.53,0,0,1-.62-0.19l-0.77-.33q-0.4-.18-0.81-0.32a1.92,1.92,0,0,0-1.44,0q-0.4.14-.81,0.32l-0.77.33a2.72,2.72,0,0,1-.58.19,2.65,2.65,0,0,1-.81-1.72q-0.11-1.05-.11-2.29v-0.18a9.29,9.29,0,0,1,.18-2,6.71,6.71,0,0,1,.46-1.37,6.61,6.61,0,0,1,.35-0.67,3.72,3.72,0,0,1,.65-0.81,4.66,4.66,0,0,1,.93-0.69,2.46,2.46,0,0,1,1.23-.3,3,3,0,0,1,1.41.3,3.34,3.34,0,0,1,.91.69,3.19,3.19,0,0,1,.54.81Zm6.15,14.59a3.68,3.68,0,0,1-1.46-.37,4.21,4.21,0,0,1-1.2-.86,4.06,4.06,0,0,1-.81-1.21,3.7,3.7,0,0,1-.3-1.49v-0.25q0.18-.77.35-1.74t0.33-1.93q0.16-1,.25-1.9t0.09-1.63c0-.28,0-0.54,0-0.77a1.31,1.31,0,0,0-.14-0.53,0.48,0.48,0,0,1-.14-0.35,0.41,0.41,0,0,1,.14-0.28,1.4,1.4,0,0,1,.18-0.21,0.49,0.49,0,0,1,.35-0.11,2.69,2.69,0,0,1,1.2.6,16.15,16.15,0,0,1,1.83,1.55,22,22,0,0,1,1.93,2.14,12.28,12.28,0,0,1,1.51,2.39,6.68,6.68,0,0,1,.74,2.85,3.65,3.65,0,0,1-.84,2.46,2.36,2.36,0,0,1-.28.33,3.87,3.87,0,0,1-.7.56,5.13,5.13,0,0,1-1.11.53,4.5,4.5,0,0,1-1.49.23h-0.39Zm0.35-1.09a3.61,3.61,0,0,0,1.18-.18,3.56,3.56,0,0,0,.84-0.4,3.7,3.7,0,0,0,.51-0.4,0.71,0.71,0,0,1,.21-0.18,3,3,0,0,0,.6-1.83,4.91,4.91,0,0,0-.21-1.34,8.48,8.48,0,0,0-1-2,18,18,0,0,0-1.41-1.92,18.38,18.38,0,0,0-1.51-1.6q-0.76-.7-1.28-1.12a2.72,2.72,0,0,1,0,.44v0.51a17.52,17.52,0,0,1-.11,1.86q-0.11,1-.25,1.93T110,227.07q-0.14.81-.25,1.27a1.13,1.13,0,0,0-.07.28v0.21a2.65,2.65,0,0,0,.74,1.9,2.71,2.71,0,0,0,1.86.84h0.35Z" transform="translate(-6.5 -6.5)"/><path class="cls-2" d="M160,293.4a33.52,33.52,0,0,1-8.86-1.16,31.59,31.59,0,0,1-8.09-3.48v0h-3v-6.47a6.09,6.09,0,0,0-.72-2.83,18.92,18.92,0,0,0-1.69-2.67q-1-1.28-2-2.44a12.3,12.3,0,0,1-1.56-2.21,6.55,6.55,0,0,1-.62-1.92q-0.23-1.21-.37-2.67t-0.19-3q-0.05-1.55-.05-2.85t0-2.23q0-.93,0-1.21a1.88,1.88,0,0,0-.49-1.34,1.78,1.78,0,0,0-1.37-.53,1.3,1.3,0,0,0-.72.19,1.72,1.72,0,0,0-.49.47,2.48,2.48,0,0,0-.3.58,1.65,1.65,0,0,0-.11.54q0,0.18,0,1.09t0,2.34q0,1.42.05,3.25t0.05,3.78q0,2,0,3.9t0,3.67a18,18,0,0,0,.63,4.87,28.48,28.48,0,0,0,1.41,4,26.32,26.32,0,0,0,2,3.69H130q-0.6-1.2-1.21-2.53a23.05,23.05,0,0,1-1.09-2.88,26,26,0,0,1-.77-3.32,23.46,23.46,0,0,1-.3-3.88v-18a27.12,27.12,0,0,1,1.14-7.75,31.9,31.9,0,0,1,3.25-7.37,34,34,0,0,1,19.85-15.21,34,34,0,0,1,18.25,0,34.22,34.22,0,0,1,8.07,3.46,33.71,33.71,0,0,1,6.71,5.22,34.2,34.2,0,0,1,5.1,6.52,31.92,31.92,0,0,1,3.25,7.37,27.13,27.13,0,0,1,1.14,7.75v18a23.51,23.51,0,0,1-.3,3.88,26.1,26.1,0,0,1-.77,3.32,23.13,23.13,0,0,1-1.09,2.88q-0.62,1.34-1.21,2.53h-3.69a26.42,26.42,0,0,0,2-3.69,28.54,28.54,0,0,0,1.41-4,18,18,0,0,0,.63-4.87q0-1.72,0-3.67t0-3.9q0-2,.05-3.78t0.05-3.25q0-1.42,0-2.34t0-1.09a1.65,1.65,0,0,0-.11-0.54,2.5,2.5,0,0,0-.3-0.58,1.74,1.74,0,0,0-.49-0.47,1.3,1.3,0,0,0-.72-0.19,1.78,1.78,0,0,0-1.37.53,1.88,1.88,0,0,0-.49,1.34q0,0.28,0,1.21t0,2.23q0,1.3-.05,2.85t-0.19,3q-0.14,1.46-.37,2.67a6.58,6.58,0,0,1-.62,1.92,12.32,12.32,0,0,1-1.56,2.21q-1,1.16-2,2.44a18.83,18.83,0,0,0-1.69,2.67,6.08,6.08,0,0,0-.72,2.83v6.47h-3v0a31.53,31.53,0,0,1-8.1,3.48A33.72,33.72,0,0,1,160,293.4Zm0-63.49a29.59,29.59,0,0,0-19.69,7.35,30.69,30.69,0,0,0-4.52,4.9,31.06,31.06,0,0,0-3.29,5.61,27.19,27.19,0,0,0-1.93,6l0.26,0,0.26,0a4.27,4.27,0,0,1,1.93.42,4.7,4.7,0,0,1,1.42,1.07,4.34,4.34,0,0,1,.86,1.44,4.65,4.65,0,0,1,.28,1.56q0,0.56,0,1.62t0.07,2.34q0.05,1.28.14,2.67t0.25,2.69a23.15,23.15,0,0,0,.4,2.37,7,7,0,0,0,.56,1.67,13.41,13.41,0,0,0,1.37,2.09q0.7,0.86,1.37,1.58l1.27,1.37a7.31,7.31,0,0,1,1,1.46,7.86,7.86,0,0,1,.7,1.88,11.14,11.14,0,0,1,.26,2.62v2.21a32.46,32.46,0,0,0,7.77,3.85,30.39,30.39,0,0,0,18.39,0,32.46,32.46,0,0,0,7.77-3.85v-2.21a11.14,11.14,0,0,1,.26-2.62,7.84,7.84,0,0,1,.7-1.88,7.27,7.27,0,0,1,1-1.46l1.27-1.37q0.67-.72,1.37-1.58A13.48,13.48,0,0,0,183,271.6a7,7,0,0,0,.56-1.67,23.28,23.28,0,0,0,.4-2.37q0.16-1.3.25-2.69t0.14-2.67q0.05-1.28.07-2.34t0-1.62a4.64,4.64,0,0,1,.28-1.56,4.33,4.33,0,0,1,.86-1.44,4.77,4.77,0,0,1,1.41-1.07,4.24,4.24,0,0,1,2-.42l0.26,0,0.26,0a27.24,27.24,0,0,0-1.93-6,30.51,30.51,0,0,0-3.3-5.61,31.84,31.84,0,0,0-4.52-4.9,29.13,29.13,0,0,0-5.62-3.88A29.87,29.87,0,0,0,160,229.91ZM149.4,242.67a4,4,0,0,0-1.07.46l-0.83.54q-0.39.26-.79,0.49a2.61,2.61,0,0,1-1,.3h-0.11a1.55,1.55,0,0,1-1-.44,1.48,1.48,0,0,1-.51-1.18v-0.11a2.94,2.94,0,0,1,.67-1.69,4.39,4.39,0,0,1,2.18-1.44,6.29,6.29,0,0,1,1.23-.3,9,9,0,0,1,1.23-.09,8,8,0,0,1,1.79.19,6.34,6.34,0,0,1,1.41.47,3,3,0,0,1,1,.72,1.13,1.13,0,0,1,.3.69,0.51,0.51,0,0,1-.21.46,2.11,2.11,0,0,1-.91.37q-0.53.09-1.11,0.14l-1.18.12A4.41,4.41,0,0,0,149.4,242.67Zm-2.88,9.74a10.75,10.75,0,0,1,.21-2.18,7.75,7.75,0,0,1,.56-1.76,3.81,3.81,0,0,1,.83-1.18,1.44,1.44,0,0,1,2.07,0,3.82,3.82,0,0,1,.83,1.18,7.78,7.78,0,0,1,.56,1.76,10.75,10.75,0,0,1,.21,2.18,10.31,10.31,0,0,1-.21,2.13,8.18,8.18,0,0,1-.56,1.76,3.77,3.77,0,0,1-.83,1.2,1.44,1.44,0,0,1-2.07,0,3.77,3.77,0,0,1-.83-1.2,8.16,8.16,0,0,1-.56-1.76A10.31,10.31,0,0,1,146.52,252.41ZM160,263.8a7.47,7.47,0,0,1,4.08,1.09,9.67,9.67,0,0,1,2.87,2.78,12.52,12.52,0,0,1,1.71,3.74,15,15,0,0,1,.56,4,15.39,15.39,0,0,1-.56,4,12.93,12.93,0,0,1-1.71,3.81,9.91,9.91,0,0,1-2.87,2.85,7.29,7.29,0,0,1-4.08,1.13,7.62,7.62,0,0,1-4.15-1.11,9.82,9.82,0,0,1-2.92-2.81,12.83,12.83,0,0,1-1.74-3.76,14.56,14.56,0,0,1-.58-4,14.74,14.74,0,0,1,.58-4,13,13,0,0,1,1.74-3.8,9.73,9.73,0,0,1,2.92-2.83A7.62,7.62,0,0,1,160,263.8Zm0,2.32a5.52,5.52,0,0,0-3.18.9,7.33,7.33,0,0,0-2.16,2.29,10.36,10.36,0,0,0-1.23,3,13.86,13.86,0,0,0-.39,3.16,13.5,13.5,0,0,0,.39,3.11,10.39,10.39,0,0,0,1.23,3,7.33,7.33,0,0,0,2.16,2.29,5.52,5.52,0,0,0,3.18.9,5.3,5.3,0,0,0,3.13-.91,7.42,7.42,0,0,0,2.13-2.3,10.68,10.68,0,0,0,1.21-3,13.88,13.88,0,0,0,.39-3.16,13.66,13.66,0,0,0-.39-3.15,10.47,10.47,0,0,0-1.21-3,7.11,7.11,0,0,0-2.13-2.25A5.46,5.46,0,0,0,160,266.12Zm6.26-24.36a0.62,0.62,0,0,1-.18-0.46,1.16,1.16,0,0,1,.28-0.69,2.8,2.8,0,0,1,1-.72,6.33,6.33,0,0,1,1.41-.47,8,8,0,0,1,1.79-.19,9,9,0,0,1,1.23.09,6.29,6.29,0,0,1,1.23.3,4.42,4.42,0,0,1,2.25,1.44,2.94,2.94,0,0,1,.67,1.69v0.11a1.71,1.71,0,0,1-.58,1.18,1.55,1.55,0,0,1-1,.44h-0.11a2.6,2.6,0,0,1-1-.3,8.66,8.66,0,0,1-.77-0.49l-0.79-.54a3.74,3.74,0,0,0-1-.46,5.56,5.56,0,0,0-1.21-.28l-1.21-.12q-0.6-.05-1.11-0.14A2.1,2.1,0,0,1,166.24,241.75Zm4.57,16.17a1.5,1.5,0,0,1-1-.44,3.77,3.77,0,0,1-.83-1.2,8.16,8.16,0,0,1-.56-1.76,10.31,10.31,0,0,1-.21-2.13,10.75,10.75,0,0,1,.21-2.18,7.75,7.75,0,0,1,.56-1.76,3.81,3.81,0,0,1,.83-1.18,1.44,1.44,0,0,1,2.07,0,3.82,3.82,0,0,1,.83,1.18,7.78,7.78,0,0,1,.56,1.76,10.75,10.75,0,0,1,.21,2.18,10.31,10.31,0,0,1-.21,2.13,8.18,8.18,0,0,1-.56,1.76,3.77,3.77,0,0,1-.83,1.2A1.5,1.5,0,0,1,170.81,257.93Z" transform="translate(-6.5 -6.5)"/><path class="cls-3" d="M160,26.6a32.8,32.8,0,0,1,8.88,1.2A33.49,33.49,0,0,1,192.2,51.12,32.8,32.8,0,0,1,193.4,60a33.47,33.47,0,0,1-14.89,27.83,33.64,33.64,0,0,1-5.73,3.06,32.63,32.63,0,0,1-6.22,1.88,33.89,33.89,0,0,1-6.56.63,32.8,32.8,0,0,1-8.88-1.2,33.92,33.92,0,0,1-8-3.36,33,33,0,0,1-6.75-5.2,33.32,33.32,0,0,1-8.6-14.75,33.63,33.63,0,0,1,0-17.77A33.49,33.49,0,0,1,151.12,27.8,32.8,32.8,0,0,1,160,26.6Zm0,63.49A29.83,29.83,0,0,0,175.19,86,30.52,30.52,0,0,0,186,75.19,29.83,29.83,0,0,0,190.09,60,29.48,29.48,0,0,0,189,52a30,30,0,0,0-3-7.17,30.88,30.88,0,0,0-4.71-6.1A29.83,29.83,0,0,0,168,31a30,30,0,0,0-23.19,3,30.06,30.06,0,0,0-6.08,4.73,30.86,30.86,0,0,0-4.71,6.1A29.94,29.94,0,0,0,131,52a30.3,30.3,0,0,0,0,16,29.85,29.85,0,0,0,3,7.19A30.52,30.52,0,0,0,144.81,86,29.83,29.83,0,0,0,160,90.09Zm-12.45-48.2a1.68,1.68,0,0,1,1.2.56,5,5,0,0,1,1,1.51,10.28,10.28,0,0,1,.67,2.23,14.5,14.5,0,0,1,.25,2.72,13.71,13.71,0,0,1-.26,2.76,10.13,10.13,0,0,1-.69,2.2,4.18,4.18,0,0,0-.95-0.28,6.48,6.48,0,0,0-1.2-.11,7.37,7.37,0,0,0-1.25.11,4.16,4.16,0,0,0-1,.28,10.28,10.28,0,0,1-.62-2.2,15.7,15.7,0,0,1-.23-2.76,14.46,14.46,0,0,1,.25-2.72,10.25,10.25,0,0,1,.67-2.23,5,5,0,0,1,1-1.51A1.68,1.68,0,0,1,147.55,41.89Zm25.52,0.18a1.65,1.65,0,0,1,1.18.54,4.92,4.92,0,0,1,1,1.49,9.73,9.73,0,0,1,.65,2.21,15.84,15.84,0,0,1,0,5.36,9.06,9.06,0,0,1-.65,2.2,2.29,2.29,0,0,0-.95-0.32,10.2,10.2,0,0,0-2.39,0,2.58,2.58,0,0,0-1,.32,10.28,10.28,0,0,1-.62-2.2,15.07,15.07,0,0,1-.23-2.65,14.18,14.18,0,0,1,.25-2.71,10.28,10.28,0,0,1,.67-2.21,4.91,4.91,0,0,1,1-1.49A1.61,1.61,0,0,1,173.08,42.07Z" transform="translate(-6.5 -6.5)"/><line x1="153.5" y1="153.5" x2="153.5" y2="103.54"/><path d="M155,160l0.25-2.15c0.15-1.37.33-3.32,0.57-5.66s0.46-5.07.72-8,0.48-6,.67-9.17,0.42-6.24.57-9.17,0.35-5.66.4-8a39.59,39.59,0,0,0-.29-5.66,17.34,17.34,0,0,0-.39-2.15,2.59,2.59,0,1,1,5-1.37,2.62,2.62,0,0,1,0,1.37,17.34,17.34,0,0,0-.39,2.15,39.59,39.59,0,0,0-.29,5.66c0.06,2.34.26,5.07,0.4,8s0.37,6,.57,9.17,0.46,6.24.67,9.17,0.47,5.66.72,8,0.42,4.29.57,5.66L165,160a5,5,0,1,1-10,1.15A5.28,5.28,0,0,1,155,160Z" transform="translate(-6.5 -6.5)"/><line x1="153.5" y1="153.5" x2="103.54" y2="153.5"/><path d="M160,165l-2.15-.25c-1.37-.15-3.32-0.33-5.66-0.57s-5.07-.46-8-0.72-6-.48-9.17-0.67-6.24-.42-9.17-0.57-5.66-.35-8-0.4a39.59,39.59,0,0,0-5.66.29,17.34,17.34,0,0,0-2.15.39,2.59,2.59,0,1,1-1.37-5,2.62,2.62,0,0,1,1.37,0,17.34,17.34,0,0,0,2.15.39,39.59,39.59,0,0,0,5.66.29c2.34-.06,5.07-0.26,8-0.4s6-.37,9.17-0.57,6.24-.46,9.17-0.67,5.66-.47,8-0.72,4.29-.42,5.66-0.57L160,155a5,5,0,1,1,1.15,10A5.28,5.28,0,0,1,160,165Z" transform="translate(-6.5 -6.5)"/><line x1="153.5" y1="153.5" x2="153.5" y2="203.46"/><path d="M165,160l-0.25,2.15c-0.15,1.37-.33,3.32-0.57,5.66s-0.46,5.07-.72,8-0.48,6-.67,9.17-0.42,6.24-.57,9.17-0.35,5.66-.4,8a39.59,39.59,0,0,0,.29,5.66,17.34,17.34,0,0,0,.39,2.15,2.59,2.59,0,1,1-5,1.37,2.62,2.62,0,0,1,0-1.37,17.34,17.34,0,0,0,.39-2.15,39.59,39.59,0,0,0,.29-5.66c-0.06-2.34-.26-5.07-0.4-8s-0.37-6-.57-9.17-0.46-6.24-.67-9.17-0.47-5.66-.72-8-0.42-4.29-.57-5.66L155,160a5,5,0,1,1,10-1.15A5.28,5.28,0,0,1,165,160Z" transform="translate(-6.5 -6.5)"/><line x1="153.5" y1="153.5" x2="203.46" y2="153.5"/><path d="M160,155l2.15,0.25c1.37,0.15,3.32.33,5.66,0.57s5.07,0.46,8,.72,6,0.48,9.17.67,6.24,0.42,9.17.57,5.66,0.35,8,.4a39.59,39.59,0,0,0,5.66-.29,17.34,17.34,0,0,0,2.15-.39,2.59,2.59,0,1,1,1.37,5,2.62,2.62,0,0,1-1.37,0,17.34,17.34,0,0,0-2.15-.39,39.59,39.59,0,0,0-5.66-.29c-2.34.06-5.07,0.26-8,.4s-6,.37-9.17.57-6.24.46-9.17,0.67-5.66.47-8,.72-4.29.42-5.66,0.57L160,165a5,5,0,1,1-1.15-10A5.28,5.28,0,0,1,160,155Z" transform="translate(-6.5 -6.5)"/><circle class="cls-4" cx="153.5" cy="153.5" r="11.08"/></svg>